<svg width="68" height="68" viewBox="0 0 68 68" fill="none" xmlns="http://www.w3.org/2000/svg">
<path d="M30.5 24L39.5933 36H21.4067L30.5 24Z" fill="#FFD645"/>
<path d="M42 17L54.9904 36.5H29.0096L42 17Z" fill="#FFD645"/>
<path d="M66.0078 47.9453H1.99219C0.891969 47.9453 0 48.8373 0 49.9375V66.0078C0 67.108 0.891969 68 1.99219 68H66.0078C67.108 68 68 67.108 68 66.0078V49.9375C68 48.8373 67.108 47.9453 66.0078 47.9453ZM64.0156 64.0156H59.8984V57.9062C59.8984 56.806 59.0065 55.9141 57.9062 55.9141C56.806 55.9141 55.9141 56.806 55.9141 57.9062V64.0156H51.9297V61.8906C51.9297 60.7904 51.0377 59.8984 49.9375 59.8984C48.8373 59.8984 47.9453 60.7904 47.9453 61.8906V64.0156H43.9609V57.9062C43.9609 56.806 43.069 55.9141 41.9688 55.9141C40.8685 55.9141 39.9766 56.806 39.9766 57.9062V64.0156H35.9922V61.8906C35.9922 60.7904 35.1002 59.8984 34 59.8984C32.8998 59.8984 32.0078 60.7904 32.0078 61.8906V64.0156H28.0234V57.9062C28.0234 56.806 27.1315 55.9141 26.0312 55.9141C24.931 55.9141 24.0391 56.806 24.0391 57.9062V64.0156H20.0547V61.8906C20.0547 60.7904 19.1627 59.8984 18.0625 59.8984C16.9623 59.8984 16.0703 60.7904 16.0703 61.8906V64.0156H12.0859V57.9062C12.0859 56.806 11.194 55.9141 10.0938 55.9141C8.99353 55.9141 8.10156 56.806 8.10156 57.9062V64.0156H3.98438V51.9297H64.0156V64.0156Z" fill="black"/>
<path d="M18.0625 12.0859C14.767 12.0859 12.0859 14.767 12.0859 18.0625C12.0859 21.358 14.767 24.0391 18.0625 24.0391C21.358 24.0391 24.0391 21.358 24.0391 18.0625C24.0391 14.767 21.358 12.0859 18.0625 12.0859ZM18.0625 20.0547C16.964 20.0547 16.0703 19.161 16.0703 18.0625C16.0703 16.964 16.964 16.0703 18.0625 16.0703C19.161 16.0703 20.0547 16.964 20.0547 18.0625C20.0547 19.161 19.161 20.0547 18.0625 20.0547Z" fill="black"/>
</svg>
